<mxfile host="app.diagrams.net" agent="Mozilla/5.0 (Macintosh; Intel Mac OS X 10_15_7) AppleWebKit/537.36 (KHTML, like Gecko) Chrome/136.0.0.0 Safari/537.36" version="26.2.14">
  <diagram name="Disinformation Detection Experiments" id="6zVEg0vWxW1A6ctEU3sv">
    <mxGraphModel dx="1221" dy="697" grid="1" gridSize="10" guides="1" tooltips="1" connect="1" arrows="1" fold="1" page="1" pageScale="1" pageWidth="827" pageHeight="1169" math="0" shadow="0">
      <root>
        <mxCell id="0" />
        <mxCell id="1" parent="0" />
        <mxCell id="YbpJv0STsfepRP_15fKV-19" style="edgeStyle=orthogonalEdgeStyle;rounded=0;orthogonalLoop=1;jettySize=auto;html=1;entryX=0;entryY=0.5;entryDx=0;entryDy=0;" edge="1" parent="1" source="2" target="5">
          <mxGeometry relative="1" as="geometry" />
        </mxCell>
        <mxCell id="YbpJv0STsfepRP_15fKV-20" style="edgeStyle=orthogonalEdgeStyle;rounded=0;orthogonalLoop=1;jettySize=auto;html=1;entryX=0;entryY=0.5;entryDx=0;entryDy=0;" edge="1" parent="1" source="2" target="YbpJv0STsfepRP_15fKV-17">
          <mxGeometry relative="1" as="geometry" />
        </mxCell>
        <mxCell id="2" value="Articles" style="shape=rectangle;whiteSpace=wrap;rounded=1;fillColor=#dae8fc;strokeColor=#6c8ebf;" parent="1" vertex="1">
          <mxGeometry x="30" y="170" width="140" height="60" as="geometry" />
        </mxCell>
        <mxCell id="YbpJv0STsfepRP_15fKV-22" style="edgeStyle=orthogonalEdgeStyle;rounded=0;orthogonalLoop=1;jettySize=auto;html=1;entryX=0;entryY=0.5;entryDx=0;entryDy=0;" edge="1" parent="1" source="5" target="9">
          <mxGeometry relative="1" as="geometry" />
        </mxCell>
        <mxCell id="5" value="Flair sentiment score" style="shape=rectangle;whiteSpace=wrap;rounded=1;fillColor=#fff2cc;strokeColor=#d6b656;" parent="1" vertex="1">
          <mxGeometry x="240" y="90" width="230" height="60" as="geometry" />
        </mxCell>
        <mxCell id="9" value="Prompt includingÂ &#xa;3 sentiment scores" style="shape=rectangle;whiteSpace=wrap;rounded=1;fillColor=#e1d5e7;strokeColor=#9673a6;" parent="1" vertex="1">
          <mxGeometry x="540" y="170" width="220" height="60" as="geometry" />
        </mxCell>
        <mxCell id="15" value="Evaluation (Accuracy, Precision, Recall, F1)" style="shape=rectangle;whiteSpace=wrap;rounded=1;fillColor=#d5e8d4;strokeColor=#82b366;" parent="1" vertex="1">
          <mxGeometry x="540" y="320" width="240" height="60" as="geometry" />
        </mxCell>
        <mxCell id="YbpJv0STsfepRP_15fKV-23" style="edgeStyle=orthogonalEdgeStyle;rounded=0;orthogonalLoop=1;jettySize=auto;html=1;" edge="1" parent="1" source="YbpJv0STsfepRP_15fKV-17">
          <mxGeometry relative="1" as="geometry">
            <mxPoint x="540.0000000000002" y="200" as="targetPoint" />
          </mxGeometry>
        </mxCell>
        <mxCell id="YbpJv0STsfepRP_15fKV-17" value="VADER sentiment score" style="shape=rectangle;whiteSpace=wrap;rounded=1;fillColor=#fff2cc;strokeColor=#d6b656;" vertex="1" parent="1">
          <mxGeometry x="240" y="170" width="230" height="60" as="geometry" />
        </mxCell>
        <mxCell id="YbpJv0STsfepRP_15fKV-25" style="edgeStyle=orthogonalEdgeStyle;rounded=0;orthogonalLoop=1;jettySize=auto;html=1;entryX=0;entryY=0.5;entryDx=0;entryDy=0;" edge="1" parent="1" source="YbpJv0STsfepRP_15fKV-18" target="9">
          <mxGeometry relative="1" as="geometry" />
        </mxCell>
        <mxCell id="YbpJv0STsfepRP_15fKV-18" value="carddiffnlp/twitter-roberta-base-sentiment sentiment score" style="shape=rectangle;whiteSpace=wrap;rounded=1;fillColor=#fff2cc;strokeColor=#d6b656;" vertex="1" parent="1">
          <mxGeometry x="240" y="253" width="230" height="60" as="geometry" />
        </mxCell>
        <mxCell id="YbpJv0STsfepRP_15fKV-21" style="edgeStyle=orthogonalEdgeStyle;rounded=0;orthogonalLoop=1;jettySize=auto;html=1;entryX=0;entryY=0.617;entryDx=0;entryDy=0;entryPerimeter=0;" edge="1" parent="1" source="2" target="YbpJv0STsfepRP_15fKV-18">
          <mxGeometry relative="1" as="geometry" />
        </mxCell>
        <mxCell id="YbpJv0STsfepRP_15fKV-26" style="edgeStyle=orthogonalEdgeStyle;rounded=0;orthogonalLoop=1;jettySize=auto;html=1;entryX=0.459;entryY=0.013;entryDx=0;entryDy=0;entryPerimeter=0;" edge="1" parent="1" source="9" target="15">
          <mxGeometry relative="1" as="geometry" />
        </mxCell>
      </root>
    </mxGraphModel>
  </diagram>
</mxfile>
